<svg id="Layer_1" data-name="Layer 1" xmlns="http://www.w3.org/2000/svg" viewBox="0 0 1417.32 1417.32"><defs><style>.cls-1,.cls-8{fill:#fff;}.cls-2{fill:#5e5e5e;}.cls-3{fill:#fcfcfc;}.cls-4{fill:none;}.cls-5{fill:#790506;}.cls-6{fill:#12dedb;stroke:#000;}.cls-6,.cls-7{stroke-miterlimit:10;stroke-width:5px;}.cls-7{fill:#fef157;stroke:#020202;}.cls-8{font-size:42px;font-family:TimesNewRomanPS-BoldMT, Times New Roman;font-weight:700;}</style></defs><ellipse class="cls-1" cx="688.91" cy="708.66" rx="182.26" ry="179.06"/><path class="cls-2" d="M563.16,580.39c-71.48,70.88-73,185.26-3.34,255.48s184,69.68,255.5-1.2Z"/><rect class="cls-2" x="679.11" y="700.12" width="20.16" height="11.31" transform="translate(-297.2 694.05) rotate(-45)"/><circle class="cls-2" cx="705.19" cy="691.04" r="13.29"/><path class="cls-3" d="M559.56,595.29l20.06,21.59S524,670,520.45,712.12C520.45,712.12,512.32,661.58,559.56,595.29Z"/><ellipse class="cls-4" cx="688.91" cy="708.2" rx="182.26" ry="179.06"/><path class="cls-5" d="M707.07,633.92a55,55,0,0,1,24.06,5.5c11.38,5.59,20.26,13.84,26,25.37,5,10,7.3,20.34,6.08,31.44a34.8,34.8,0,0,1-.92,5.27c-.2.75-.92,1.83-1.52,1.92a22.27,22.27,0,0,1-5.71.07c-1.44-.16-1.38-1.48-1.15-2.62,4-19.89-2.21-36.14-18-48.64-11-8.75-23.76-11.42-37.57-9.38a11,11,0,0,0-1.6.39c-2.59.72-3.51,0-3.47-2.79.06-5.1-.34-4.88,5.16-5.85,1.56-.27,3.12-.52,4.69-.65C704.43,633.84,705.75,633.92,707.07,633.92Z"/><path class="cls-5" d="M748.63,691.17c-.48,3.3-.94,6.61-1.44,9.91a3,3,0,0,1-3.58,2.87h-2.47c-2.6,0-3.28-.74-2.5-3.24a32.2,32.2,0,0,0,.3-17.47,34.2,34.2,0,0,0-34.7-25.79,52.68,52.68,0,0,0-7.9,1.29c-2.11.39-2.6.06-2.69-2.08a8.34,8.34,0,0,0,0-1c-.68-5.06.75-5.63,5.23-5.91s9.38-.7,13.92,0a40.39,40.39,0,0,1,28.45,18.45A44.17,44.17,0,0,1,748.63,691.17Z"/><path class="cls-5" d="M704.72,663.37c9.5.12,17.37,3.53,23.37,11.14,6.55,8.31,7.17,17.45,4.39,27.2a3.17,3.17,0,0,1-3.61,2.58c-1.43-.12-2.89.1-4.32,0-1.78-.13-2.11-.88-1.23-2.43,6.85-12-.62-27.5-14.36-30a21.8,21.8,0,0,0-12.81,1.76c-1.74.76-2.14.51-2.29-1.43v-.41c-.21-6.52.79-7.64,7.38-8.24C702.39,663.49,703.56,663.44,704.72,663.37Z"/><path class="cls-6" d="M942.32,646.43h0a255,255,0,0,0-25.49-61.53l-6.78-11.75a255.14,255.14,0,0,0-40.54-52.83l-16-16L863.89,468l-54-31.2-26.28,27.16-54.3-14.55-9.18-36.66H657.71l-9.17,36.66-54.31,14.55L568,436.78l-54,31.2,10.38,36.33-39.75,39.75-36.33-10.38-31.2,54L444.19,614l-14.55,54.3L393,677.47v62.38L429.64,749l14.55,54.3L417,829.61l31.2,54,36.33-10.38L524.31,913l-10.38,36.33,54,31.2,26.27-27.16,54.31,14.55,9.17,36.66H720.1l9.18-36.66,54.3-14.55,26.28,27.16,54-31.2L853.5,913l16-16a255.14,255.14,0,0,0,40.54-52.83l12.26-21.23a171.87,171.87,0,0,0,17.17-41.47h0a254.66,254.66,0,0,0,8.7-66V690.93A171.84,171.84,0,0,0,942.32,646.43ZM688.91,887.72c-100.66,0-182.27-80.17-182.27-179.06S588.25,529.6,688.91,529.6s182.26,80.17,182.26,179.06S789.57,887.72,688.91,887.72Z"/><rect class="cls-7" x="840.56" y="589.89" width="58.67" height="209.52" rx="0.76"/><path class="cls-7" d="M957.9,654.66v7H1023a1.32,1.32,0,0,1,1.33,1.33v59.43a1.33,1.33,0,0,1-1.33,1.33H957.9v74.88a.76.76,0,0,1-.76.76H900a.76.76,0,0,1-.76-.76v-208a.77.77,0,0,1,.76-.77h123a1.33,1.33,0,0,1,1.33,1.34v62.09a1.33,1.33,0,0,1-1.33,1.34Z"/><text class="cls-8" transform="translate(838.74 842.69) rotate(135.78)">H</text><text class="cls-8" transform="translate(815.6 864.59) rotate(142.6)">I</text><text class="cls-8" transform="translate(803.82 874.67) rotate(150.4)">M</text><text class="cls-8" transform="translate(770.06 893.31) rotate(159.57)">P</text><text class="cls-8" transform="translate(746.94 902.16) rotate(167.45)">U</text><text class="cls-8" transform="translate(718.31 908.6) rotate(175.93)">N</text><text class="cls-8" transform="translate(689.03 910.76) rotate(-175.72)">A</text><text class="cls-8" transform="translate(659.75 908.64) rotate(-167.24)">N</text><text class="cls-8" transform="matrix(-0.95, -0.32, 0.32, -0.95, 630.97, 901.65)"> </text><text class="cls-8" transform="translate(621.42 899.45) rotate(-154.44)">M</text><text class="cls-8" transform="matrix(-0.82, -0.58, 0.58, -0.82, 586.83, 882.57)">A</text><text class="cls-8" transform="matrix(-0.72, -0.7, 0.7, -0.72, 562.8, 865.73)">H</text><text class="cls-8" transform="matrix(-0.6, -0.8, 0.8, -0.6, 540.08, 843.69)">A</text><text class="cls-8" transform="translate(522.44 820.13) rotate(-119.66)">S</text><text class="cls-8" transform="translate(511.33 800.34) rotate(-114.09)">I</text><text class="cls-8" transform="translate(504.75 786.11) rotate(-108.51)">S</text><text class="cls-8" transform="translate(496.86 765.15) rotate(-99.32)">W</text><text class="cls-8" transform="matrix(-0.02, -1, 1, -0.02, 491.09, 729.24)">A</text><text class="cls-8" transform="translate(491.03 701.88) rotate(-85.58)"> </text><text class="cls-8" transform="translate(491.69 691.85) rotate(-81.84)">I</text><text class="cls-8" transform="matrix(0.25, -0.97, 0.97, 0.25, 493.46, 676.36)">N</text><text class="cls-8" transform="translate(501.02 647.94) rotate(-67.41)">F</text><text class="cls-8" transform="translate(510.23 624.98) rotate(-59.24)">O</text><text class="cls-8" transform="translate(526.44 597.79) rotate(-50.46)">R</text><text class="cls-8" transform="translate(544.69 574.92) rotate(-40.74)">M</text><text class="cls-8" transform="translate(574.06 550.01) rotate(-30.99)">A</text><text class="cls-8" transform="translate(596.56 536.29) rotate(-23.69)">T</text><text class="cls-8" transform="translate(621.63 525.59) rotate(-17.45)">I</text><text class="cls-8" transform="translate(636.32 520.4) rotate(-10.56)">K</text><text class="cls-8" transform="translate(667.44 514.62) rotate(-1.79)">A</text><text class="cls-8" transform="translate(694.85 514.07) rotate(3.19)"> </text><text class="cls-8" transform="matrix(0.99, 0.15, -0.15, 0.99, 704.7, 514.09)">U</text><text class="cls-8" transform="translate(733.74 518.54) rotate(17.4)">N</text><text class="cls-8" transform="translate(761.74 527.5) rotate(24.94)">S</text><text class="cls-8" transform="matrix(0.86, 0.51, -0.51, 0.86, 782.26, 537.19)">I</text><text class="cls-8" transform="translate(795.94 544.63) rotate(37.34)">K</text><text class="cls-8" transform="translate(821.13 563.86) rotate(46.1)">A</text></svg>